<?xml version="1.0" encoding="UTF-8" standalone="no"?>
<!-- Created with Inkscape (http://www.inkscape.org/) -->

<svg
   xmlns:dc="http://purl.org/dc/elements/1.1/"
   xmlns:cc="http://creativecommons.org/ns#"
   xmlns:rdf="http://www.w3.org/1999/02/22-rdf-syntax-ns#"
   xmlns:svg="http://www.w3.org/2000/svg"
   xmlns="http://www.w3.org/2000/svg"
   xmlns:sodipodi="http://sodipodi.sourceforge.net/DTD/sodipodi-0.dtd"
   xmlns:inkscape="http://www.inkscape.org/namespaces/inkscape"
   width="16px"
   height="16px"
   viewBox="0 0 16 16"
   version="1.1"
   id="SVGRoot"
   inkscape:version="0.92.3 (2405546, 2018-03-11)"
   sodipodi:docname="icon1-insta.svg">
  <sodipodi:namedview
     id="base"
     pagecolor="#ffffff"
     bordercolor="#666666"
     borderopacity="1.0"
     inkscape:pageopacity="0.0"
     inkscape:pageshadow="2"
     inkscape:zoom="11.313709"
     inkscape:cx="-2.375"
     inkscape:cy="8"
     inkscape:document-units="px"
     inkscape:current-layer="layer1"
     showgrid="false"
     inkscape:window-width="1366"
     inkscape:window-height="703"
     inkscape:window-x="0"
     inkscape:window-y="0"
     inkscape:window-maximized="1"
     inkscape:grid-bbox="true" />
  <defs
     id="defs34" />
  <metadata
     id="metadata37">
    <rdf:RDF>
      <cc:Work
         rdf:about="">
        <dc:format>image/svg+xml</dc:format>
        <dc:type
           rdf:resource="http://purl.org/dc/dcmitype/StillImage" />
        <dc:title />
      </cc:Work>
    </rdf:RDF>
  </metadata>
  <g
     id="layer1"
     inkscape:groupmode="layer"
     inkscape:label="Layer 1">
    <g
       id="g202" />
    <g
       id="g4761"
       transform="translate(-17.67767,2.8284271)" />
    <path
       style="fill:#3f3f3f;fill-opacity:1;stroke-width:0.01588316"
       d="M 5.6702681,15.985592 C 3.5035282,15.971019 3.2325901,15.958593 2.7174863,15.850096 1.3720862,15.566727 0.3552901,14.515082 0.09601357,13.138779 -0.0060398,12.597076 -3.2834083e-5,12.910506 1.0812592e-4,8.1329862 2.4257592e-4,3.5687579 0.00130084,3.4951956 0.07168211,3.0368478 0.1972158,2.2196353 0.50824,1.5852765 1.04677,1.0480752 1.3430847,0.75249177 1.5850928,0.58149697 1.969491,0.396113 2.4117252,0.1828362 2.8449315,0.07588867 3.4749756,0.02444702 c 0.3342573,-0.0272916 8.7352684,-0.0305672 9.0561704,-0.003535 1.061054,0.0893932 1.776663,0.38417294 2.396924,0.98736068 0.286766,0.2788726 0.471106,0.5261963 0.643854,0.8638397 0.280003,0.5472723 0.387779,1.0215751 0.415721,1.8294701 0.0236,0.6825347 0.01041,8.8670645 -0.0146,9.0454565 -0.08271,0.590339 -0.1716,0.906167 -0.368786,1.31036 -0.273167,0.559938 -0.715179,1.050313 -1.241095,1.376888 -0.547853,0.340197 -1.140844,0.501579 -2.02991,0.552437 -0.318072,0.01819 -3.8787042,0.01759 -6.6629831,-0.0012 z m 4.4481329,-2.09532 c 0.668431,-0.02805 0.987899,-0.06685 1.365102,-0.165786 0.615645,-0.161478 1.097732,-0.445004 1.515515,-0.891311 0.457017,-0.488218 0.732029,-1.113913 0.833707,-1.896813 0.06585,-0.507041 0.08895,-1.5416298 0.07922,-3.5498842 C 13.90276,5.4893829 13.876853,5.0764693 13.731781,4.5152207 13.485212,3.5613008 12.846829,2.801938 11.982523,2.4344601 11.487354,2.2239285 11.078365,2.1450194 10.2605,2.1022171 9.7216275,2.0740158 6.1717772,2.0737437 5.6782094,2.1018666 5.1129366,2.1340743 4.8744101,2.1660815 4.5250898,2.2565993 3.8434444,2.4332314 3.3158918,2.7602319 2.885741,3.2727409 2.4280144,3.8181041 2.1894327,4.4926461 2.1189126,5.4407914 2.1072456,5.597622 2.0978986,6.3845512 2.0931716,7.6088415 c -0.00911,2.3445776 0.00694,2.9532355 0.091763,3.4848105 0.1437454,0.901069 0.5367246,1.589379 1.2053921,2.111263 0.4416259,0.344682 1.0664567,0.573186 1.7862951,0.653258 0.1496288,0.01664 0.755041,0.04596 1.1289736,0.05467 0.4531909,0.01052 3.4456081,-0.0072 3.8128076,-0.02257 z M 6.4961924,12.832376 C 6.0466338,12.824135 5.4227941,12.793699 5.2422566,12.771157 4.7776047,12.713147 4.3861175,12.580522 4.1075157,12.386737 3.8832552,12.230749 3.6642763,11.999392 3.5352968,11.78217 3.3911296,11.539372 3.2746205,11.181238 3.2257038,10.830522 c -0.057619,-0.41312 -0.064971,-0.727423 -0.064971,-2.7769557 0,-2.103197 0.00965,-2.4932335 0.072116,-2.9189539 0.1359237,-0.9261036 0.6158695,-1.5325966 1.4143808,-1.787306 0.5314419,-0.16952 0.817097,-0.1854444 3.3260964,-0.1854202 2.227186,1.58e-5 2.61652,0.013263 3.063536,0.1041948 0.481967,0.098041 0.82392,0.2717316 1.122185,0.5699966 0.294265,0.2942648 0.475541,0.6482533 0.569621,1.1123313 0.0932,0.4597884 0.104851,0.8008424 0.104883,3.0733909 3.2e-5,2.2930522 -0.01111,2.6017132 -0.110896,3.0729372 -0.134877,0.636941 -0.50658,1.146122 -1.035172,1.418038 -0.343252,0.176574 -0.709004,0.259807 -1.315796,0.299431 -0.233675,0.01526 -3.2776465,0.0311 -3.8754893,0.02017 z M 8.3273522,11.014899 C 9.2674315,10.912726 10.114111,10.368131 10.610136,9.546587 11.14538,8.6600899 11.172653,7.4942147 10.679759,6.5705081 10.212661,5.6951501 9.3382155,5.0953555 8.3611234,4.9801242 8.1458529,4.9547366 7.6593645,4.9672743 7.4675319,5.0031534 6.8444219,5.1196958 6.3025696,5.4035224 5.8599191,5.8452336 5.5223189,6.1821183 5.2899653,6.5466984 5.1366532,6.9800927 4.6743185,8.2870573 5.1572981,9.747739 6.3055991,10.51534 c 0.6024554,0.402723 1.3082176,0.57711 2.0217574,0.499559 z M 7.6657585,9.9419863 C 7.2684801,9.8753892 6.9037488,9.6844284 6.6073744,9.3878599 6.3742434,9.1545749 6.2235303,8.9107604 6.1256146,8.6084918 6.0529672,8.3842379 6.0355752,8.2663246 6.0355752,7.9979791 c 0,-0.2669435 0.017457,-0.3864334 0.088489,-0.6057713 C 6.2198612,7.0963782 6.3888098,6.823595 6.614546,6.6002616 7.2045017,6.0165826 8.0902863,5.8644669 8.8348704,6.2189656 c 0.2198409,0.1046665 0.3810781,0.2183802 0.5519951,0.3892973 0.252822,0.2528227 0.427385,0.557939 0.519859,0.9086557 0.04636,0.1758361 0.04939,0.204611 0.04973,0.4731191 2.69e-4,0.2133352 -0.0065,0.3154764 -0.02656,0.4024419 C 9.7401005,9.2143106 9.1150717,9.8131022 8.310882,9.9435282 8.1314363,9.9726302 7.8444736,9.9719472 7.6657587,9.9420082 Z M 11.314954,5.5351288 c 0.355754,-0.082015 0.600905,-0.4424282 0.543485,-0.7990146 -0.05008,-0.3110205 -0.288403,-0.5493427 -0.599424,-0.5994247 -0.356587,-0.05742 -0.717,0.1877326 -0.799015,0.543486 -0.03524,0.1528729 -0.0097,0.3490234 0.06448,0.4943493 0.04679,0.091714 0.189213,0.2369765 0.281697,0.2873129 0.149575,0.081409 0.348967,0.1101324 0.508774,0.073291 z"
       id="path4763"
       inkscape:connector-curvature="0" />
  </g>
</svg>
