<?xml version="1.0" encoding="UTF-8" standalone="no"?>
<!-- Created with Inkscape (http://www.inkscape.org/) -->

<svg
   xmlns:dc="http://purl.org/dc/elements/1.1/"
   xmlns:cc="http://creativecommons.org/ns#"
   xmlns:rdf="http://www.w3.org/1999/02/22-rdf-syntax-ns#"
   xmlns:svg="http://www.w3.org/2000/svg"
   xmlns="http://www.w3.org/2000/svg"
   xmlns:sodipodi="http://sodipodi.sourceforge.net/DTD/sodipodi-0.dtd"
   xmlns:inkscape="http://www.inkscape.org/namespaces/inkscape"
   width="16px"
   height="16px"
   viewBox="0 0 16 16"
   version="1.1"
   id="SVGRoot"
   inkscape:version="0.92.3 (2405546, 2018-03-11)"
   sodipodi:docname="icon1-pin.svg">
  <sodipodi:namedview
     id="base"
     pagecolor="#ffffff"
     bordercolor="#666666"
     borderopacity="1.0"
     inkscape:pageopacity="0.0"
     inkscape:pageshadow="2"
     inkscape:zoom="16"
     inkscape:cx="-2.375"
     inkscape:cy="8"
     inkscape:document-units="px"
     inkscape:current-layer="layer1"
     showgrid="false"
     inkscape:window-width="1366"
     inkscape:window-height="703"
     inkscape:window-x="0"
     inkscape:window-y="0"
     inkscape:window-maximized="1"
     inkscape:grid-bbox="true" />
  <defs
     id="defs34" />
  <metadata
     id="metadata37">
    <rdf:RDF>
      <cc:Work
         rdf:about="">
        <dc:format>image/svg+xml</dc:format>
        <dc:type
           rdf:resource="http://purl.org/dc/dcmitype/StillImage" />
        <dc:title />
      </cc:Work>
    </rdf:RDF>
  </metadata>
  <g
     id="layer1"
     inkscape:groupmode="layer"
     inkscape:label="Layer 1">
    <g
       id="g202" />
    <path
       style="fill:#3f3f3f;fill-opacity:1;stroke-width:0.05361066"
       d="m 6.8902034,15.965506 c -0.5541476,-0.09453 -1.0700906,-0.218795 -1.0983578,-0.264533 -0.01553,-0.02513 0.057186,-0.189102 0.1615989,-0.364379 0.3245901,-0.544892 0.5355585,-1.124235 0.8242931,-2.263611 0.1531794,-0.604461 0.2887175,-1.129375 0.3011951,-1.166476 0.013651,-0.04059 0.1117119,0.02912 0.2462257,0.175054 0.267728,0.29045 0.8507982,0.591963 1.3073911,0.676066 0.8847117,0.162963 2.0540435,-0.175718 2.8815135,-0.834591 0.644066,-0.512837 1.277861,-1.508493 1.566261,-2.4605088 C 13.395836,8.4210185 13.474706,7.0934761 13.269019,6.2864055 12.668541,3.930256 10.362639,2.4585057 7.6792149,2.7186924 5.4882983,2.9311253 3.8200082,4.0302974 3.0022912,5.8001376 2.6937501,6.467935 2.5813577,6.9984234 2.5858941,7.7655256 2.5941341,9.1533639 3.0945695,10.176131 4.0021887,10.659887 4.5045544,10.927645 4.5769067,10.864854 4.75617,10.005543 4.8190252,9.7042567 4.8173264,9.6951546 4.6563034,9.469436 4.2840869,8.9476648 4.1574518,8.5426487 4.1570688,7.8727473 4.1567251,7.2745005 4.3142097,6.63182 4.595526,6.0834307 4.9173649,5.4560472 5.5670829,4.8170618 6.2019621,4.5035319 7.6744362,3.776362 9.5890354,3.9860488 10.586738,4.9837524 c 0.358817,0.3588173 0.646409,0.8901384 0.751233,1.3878962 0.08431,0.4003063 0.07184,1.4470662 -0.02374,1.9952178 C 10.965034,10.369288 9.8273353,11.616608 8.585277,11.358757 8.1838544,11.275426 7.8784194,11.042617 7.7177422,10.697515 7.5153362,10.262787 7.5401847,10.043366 7.9374578,8.7573232 8.1836584,7.9603304 8.3368589,7.3016299 8.3373123,7.0381097 8.3390211,6.0718085 7.5042559,5.5200953 6.6782057,5.9415142 6.3903597,6.0883623 6.0052123,6.5395631 5.8626438,6.8969455 5.6982293,7.3090915 5.6844068,8.3688034 5.8369308,8.8682138 l 0.099364,0.325333 -0.5463392,2.3015892 C 4.9190275,13.479037 4.8356502,13.900324 4.7859038,14.547275 4.7541598,14.960077 4.7216418,15.30632 4.7136398,15.316702 4.6727183,15.369787 3.6561285,14.770204 3.1767305,14.410229 1.573887,13.20667 0.52590484,11.524753 0.12292221,9.5091394 -0.04387061,8.6748868 -0.04047002,7.2900289 0.13036069,6.4788699 0.29584373,5.6931135 0.51698671,5.0613502 0.86406113,4.3828243 1.9910892,2.1794999 3.9897292,0.66723954 6.4613167,0.14769061 7.2728317,-0.02289674 8.657957,-0.02619651 9.4915863,0.14047361 12.838643,0.80965368 15.332062,3.360739 15.903045,6.7002141 c 0.154427,0.9031942 0.121317,2.2060268 -0.07748,3.048908 -0.384306,1.6293759 -1.002908,2.7427069 -2.176853,3.9177999 -1.165466,1.166605 -2.289582,1.791274 -3.9171392,2.176745 -0.4673566,0.110689 -0.7312739,0.136616 -1.5547095,0.152731 -0.5454889,0.01068 -1.124484,-0.0032 -1.2866559,-0.03089 z"
       id="path204"
       inkscape:connector-curvature="0" />
  </g>
</svg>
