<?xml version="1.0" encoding="UTF-8" standalone="no"?>
<!-- Created with Inkscape (http://www.inkscape.org/) -->

<svg
   xmlns:dc="http://purl.org/dc/elements/1.1/"
   xmlns:cc="http://creativecommons.org/ns#"
   xmlns:rdf="http://www.w3.org/1999/02/22-rdf-syntax-ns#"
   xmlns:svg="http://www.w3.org/2000/svg"
   xmlns="http://www.w3.org/2000/svg"
   xmlns:sodipodi="http://sodipodi.sourceforge.net/DTD/sodipodi-0.dtd"
   xmlns:inkscape="http://www.inkscape.org/namespaces/inkscape"
   width="16px"
   height="16px"
   viewBox="0 0 16 16"
   version="1.1"
   id="SVGRoot"
   inkscape:version="0.92.3 (2405546, 2018-03-11)"
   sodipodi:docname="icon-cook.svg">
  <sodipodi:namedview
     id="base"
     pagecolor="#ffffff"
     bordercolor="#666666"
     borderopacity="1.0"
     inkscape:pageopacity="0.0"
     inkscape:pageshadow="2"
     inkscape:zoom="22.627417"
     inkscape:cx="13.040699"
     inkscape:cy="4.3408739"
     inkscape:document-units="px"
     inkscape:current-layer="layer1"
     showgrid="false"
     inkscape:window-width="1366"
     inkscape:window-height="703"
     inkscape:window-x="0"
     inkscape:window-y="0"
     inkscape:window-maximized="1"
     inkscape:grid-bbox="true"
     inkscape:snap-global="false" />
  <defs
     id="defs34" />
  <metadata
     id="metadata37">
    <rdf:RDF>
      <cc:Work
         rdf:about="">
        <dc:format>image/svg+xml</dc:format>
        <dc:type
           rdf:resource="http://purl.org/dc/dcmitype/StillImage" />
        <dc:title />
      </cc:Work>
    </rdf:RDF>
  </metadata>
  <g
     id="layer1"
     inkscape:groupmode="layer"
     inkscape:label="Layer 1">
    <g
       id="g5166"
       transform="translate(15.821514,-0.6629126)" />
    <path
       style="fill:#3f3f3f;stroke-width:0.18442203;fill-opacity:1"
       d="M 8.0988123,0.27570681 C 6.9512332,0.2719716 5.8061677,0.72737249 4.7937675,1.6420147 4.3139192,2.0755293 3.8744565,2.3058135 3.5277388,2.3084555 2.1601855,2.3188846 0.51539238,3.6691058 0.13077163,5.0974785 -0.32833404,6.8024663 0.43297495,8.2561091 2.2324627,9.1149252 l 1.1803734,0.5640722 0.4136521,2.7221696 c 0.2269087,1.496903 0.5276915,2.907601 0.6706189,3.135823 0.1429295,0.228223 0.3854968,0.415743 0.5369129,0.415743 0.2359472,0 0.2565572,-0.337144 0.1545983,-2.35239 -0.016462,-0.753015 -0.010974,-1.359591 -0.00834,-1.976341 C 4.6029038,11.322604 4.213306,10.476091 4.2129958,9.5223106 4.2129252,8.2980291 4.846208,7.3055428 5.6273547,7.3057163 6.4085014,7.3055428 7.0417842,8.2980291 7.0417136,9.5223106 7.0416719,10.426606 6.6911088,11.240178 6.1559115,11.57804 c 0.028752,0.660422 0.056007,1.330675 0.068939,2.149742 v 2.224951 H 7.1921296 8.161498 L 8.1009013,13.535579 C 8.0527886,11.633573 7.9689453,11.004246 7.7144076,10.585691 7.5098118,9.9002878 7.3410321,9.0390585 7.5514532,8.1560027 c 0.056563,-0.585693 0.072458,-0.5959969 1.0926281,-0.6497274 0.9473636,-0.049896 1.0474762,-0.017175 1.151125,0.3697805 0.2408097,0.8990141 0.11953,2.2613422 -0.2506987,2.8203602 -0.3173185,0.479135 -0.3666431,0.867603 -0.3676914,2.903927 l -0.00214,2.35239 H 9.926773 L 11.009775,16 10.818844,13.462455 10.50547,13.343373 c -0.191858,-1.552282 -0.348589,-3.3527558 -0.319591,-5.0850016 0.135608,-0.722847 0.668593,-1.0757488 1.199175,-0.7917901 0.345434,0.1848718 0.368892,0.4251721 0.415742,4.3872267 0.0571,4.829045 0.270814,5.096001 0.772989,0.963101 C 12.984814,9.4341398 12.902876,9.6506659 13.971429,9.1629758 14.571391,8.8891525 15.105904,8.4641434 15.45473,7.9826028 15.935777,7.3185414 16,7.0758076 16,5.9289626 16,4.8282236 15.925606,4.5249466 15.517405,3.9359079 14.983384,3.165314 13.46944,2.3042771 12.644816,2.3042771 c -0.330786,0 -0.773149,-0.2300572 -1.228424,-0.6413707 C 10.396671,0.74164983 9.2463915,0.27944189 8.0988123,0.27570681 Z"
       id="path5168"
       inkscape:connector-curvature="0"
       sodipodi:nodetypes="sscsccccscccccccccccccsccccccccccssscsssss" />
    <g
       id="g5765"
       transform="matrix(1.0696478,0,0,1.0696478,-18.010708,-0.45549774)"
       style="stroke:#3f3f3f;stroke-opacity:1">
      <path
         inkscape:connector-curvature="0"
         id="path5181"
         d="m 24.4375,7.0625001 -0.03125,1.78125"
         style="fill:none;stroke:#3f3f3f;stroke-width:0.2;stroke-linecap:round;stroke-linejoin:round;stroke-miterlimit:4;stroke-dasharray:none;stroke-opacity:1" />
      <path
         inkscape:connector-curvature="0"
         id="path5181-6"
         d="m 24.921875,7.109375 -0.03125,1.78125"
         style="fill:none;stroke:#3f3f3f;stroke-width:0.2;stroke-linecap:round;stroke-linejoin:round;stroke-miterlimit:4;stroke-dasharray:none;stroke-opacity:1" />
      <path
         inkscape:connector-curvature="0"
         id="path5181-6-7"
         d="M 25.390625,7.1718751 25.359375,8.953125"
         style="fill:none;stroke:#3f3f3f;stroke-width:0.2;stroke-linecap:round;stroke-linejoin:round;stroke-miterlimit:4;stroke-dasharray:none;stroke-opacity:1" />
    </g>
  </g>
</svg>
