<?xml version="1.0" encoding="UTF-8" standalone="no"?>
<!-- Created with Inkscape (http://www.inkscape.org/) -->

<svg
   xmlns:dc="http://purl.org/dc/elements/1.1/"
   xmlns:cc="http://creativecommons.org/ns#"
   xmlns:rdf="http://www.w3.org/1999/02/22-rdf-syntax-ns#"
   xmlns:svg="http://www.w3.org/2000/svg"
   xmlns="http://www.w3.org/2000/svg"
   xmlns:sodipodi="http://sodipodi.sourceforge.net/DTD/sodipodi-0.dtd"
   xmlns:inkscape="http://www.inkscape.org/namespaces/inkscape"
   width="16px"
   height="16px"
   viewBox="0 0 16 16"
   version="1.1"
   id="SVGRoot"
   inkscape:version="0.92.3 (2405546, 2018-03-11)"
   sodipodi:docname="icon-musi.svg">
  <sodipodi:namedview
     id="base"
     pagecolor="#ffffff"
     bordercolor="#666666"
     borderopacity="1.0"
     inkscape:pageopacity="0.0"
     inkscape:pageshadow="2"
     inkscape:zoom="8"
     inkscape:cx="8"
     inkscape:cy="8"
     inkscape:document-units="px"
     inkscape:current-layer="layer1"
     showgrid="false"
     inkscape:window-width="774"
     inkscape:window-height="702"
     inkscape:window-x="591"
     inkscape:window-y="0"
     inkscape:window-maximized="0"
     inkscape:grid-bbox="true" />
  <defs
     id="defs34" />
  <metadata
     id="metadata37">
    <rdf:RDF>
      <cc:Work
         rdf:about="">
        <dc:format>image/svg+xml</dc:format>
        <dc:type
           rdf:resource="http://purl.org/dc/dcmitype/StillImage" />
        <dc:title />
      </cc:Work>
    </rdf:RDF>
  </metadata>
  <g
     id="layer1"
     inkscape:groupmode="layer"
     inkscape:label="Layer 1">
    <g
       id="g5127"
       transform="translate(12.625,7.5)">
      <path
         style="fill:#3f3f3f;stroke-width:0.11093877;fill-opacity:1"
         d="m -12.091759,8.2970151 c -0.772703,-0.5061878 -0.701963,-1.2965088 0.188326,-2.1040156 0.725304,-0.6578634 1.740803,-1.0377018 2.7745657,-1.0378043 0.6241862,-6.14e-5 0.8243168,-0.036447 0.8813502,-0.1602221 0.040584,-0.088076 0.073789,-2.0870694 0.073789,-4.44220375 0,-3.30585885 0.034643,-4.30441705 0.1519568,-4.38011965 C -7.756991,-3.9982119 2.8778755,-7.5 3.132,-7.5 c 0.2399295,0 0.2429998,0.068467 0.2429998,5.4207265 V 3.341453 L 2.826047,3.8302073 C 1.8429841,4.7054677 0.22572111,5.1384326 -0.8192006,4.8060936 -1.4824066,4.5951584 -1.7307532,4.324439 -1.7307532,3.8124237 c 0,-1.1457812 1.54271992,-2.1874366 3.4038354,-2.2982942 L 2.584823,1.4598217 2.617002,-1.6027161 c 0.030154,-2.8707547 0.018736,-3.0621982 -0.1823531,-3.057109 -0.1179868,0.00298 -2.34799761,0.7242798 -4.9555786,1.6028749 l -4.7410566,1.5974457 -0.060783,4.1007576 -0.060783,4.1007581 -0.338788,0.4069616 C -8.1249334,7.6325785 -8.9383653,8.1402399 -9.6418836,8.3469565 -10.40481,8.5711298 -11.714064,8.5444396 -12.09176,8.2970115 Z"
         id="path5129"
         inkscape:connector-curvature="0" />
    </g>
  </g>
</svg>
