<?xml version="1.0" encoding="UTF-8" standalone="no"?>
<!-- Created with Inkscape (http://www.inkscape.org/) -->

<svg
   xmlns:dc="http://purl.org/dc/elements/1.1/"
   xmlns:cc="http://creativecommons.org/ns#"
   xmlns:rdf="http://www.w3.org/1999/02/22-rdf-syntax-ns#"
   xmlns:svg="http://www.w3.org/2000/svg"
   xmlns="http://www.w3.org/2000/svg"
   xmlns:sodipodi="http://sodipodi.sourceforge.net/DTD/sodipodi-0.dtd"
   xmlns:inkscape="http://www.inkscape.org/namespaces/inkscape"
   width="16px"
   height="16px"
   viewBox="0 0 16 16"
   version="1.1"
   id="SVGRoot"
   inkscape:version="0.92.3 (2405546, 2018-03-11)"
   sodipodi:docname="icon-exer.svg">
  <sodipodi:namedview
     id="base"
     pagecolor="#ffffff"
     bordercolor="#666666"
     borderopacity="1.0"
     inkscape:pageopacity="0.0"
     inkscape:pageshadow="2"
     inkscape:zoom="8"
     inkscape:cx="8"
     inkscape:cy="8"
     inkscape:document-units="px"
     inkscape:current-layer="layer1"
     showgrid="false"
     inkscape:window-width="774"
     inkscape:window-height="702"
     inkscape:window-x="591"
     inkscape:window-y="0"
     inkscape:window-maximized="0"
     inkscape:grid-bbox="true" />
  <defs
     id="defs34" />
  <metadata
     id="metadata37">
    <rdf:RDF>
      <cc:Work
         rdf:about="">
        <dc:format>image/svg+xml</dc:format>
        <dc:type
           rdf:resource="http://purl.org/dc/dcmitype/StillImage" />
        <dc:title />
      </cc:Work>
    </rdf:RDF>
  </metadata>
  <g
     id="layer1"
     inkscape:groupmode="layer"
     inkscape:label="Layer 1">
    <g
       id="g5142"
       transform="translate(10.97782,0.17831566)"
       style="fill:#3f3f3f;fill-opacity:1">
      <path
         style="fill:#3f3f3f;stroke-width:0.08852068;fill-opacity:1"
         d="M -6.7037741,15.6318 C -6.8369514,15.527047 -7.0175837,15.274136 -7.1051789,15.069784 L -7.2644432,14.698236 -8.269177,14.539283 c -1.5592246,-0.246677 -1.934201,-0.526518 -1.934201,-1.443478 0,-0.341429 0.05651,-0.511725 0.2655619,-0.800316 0.1460593,-0.201629 0.2655621,-0.388665 0.2655621,-0.415636 0,-0.02697 -0.1345808,-0.02379 -0.2990689,0.007 -0.6050191,0.11352 -1.1311271,-0.450256 -0.9804431,-1.050626 0.111945,-0.446022 0.328979,-0.525056 2.4645113,-0.8974602 0.2829759,-0.049348 0.5313438,-0.2400976 1.3990847,-1.07452 1.1731307,-1.1280866 2.2171936,-1.9880166 2.7335052,-2.2514192 0.4981364,-0.2541301 2.3396034,-0.2538245 2.8647568,4.78e-4 0.49332135,0.2388864 1.57445981,1.1202772 2.8147193,2.2946816 0.5711695,0.5408383 1.061009,0.9833442 1.0885341,0.9833442 0.2742154,0 2.1751457,0.3999226 2.3632223,0.4971806 0.2257812,0.116757 0.2456125,0.168603 0.2456125,0.642142 0,0.720227 -0.1645741,0.860391 -0.9738149,0.829387 l -0.6004817,-0.02301 0.3363261,0.336326 c 0.433939,0.433939 0.5444797,0.991613 0.2957642,1.49212 -0.2579923,0.519176 -0.4978453,0.635651 -1.7555295,0.852499 l -1.1467985,0.197729 -0.083049,0.290463 c -0.045674,0.159756 -0.21773483,0.40872 -0.38235057,0.553255 -0.25744542,0.22604 -0.37005403,0.262709 -0.80521711,0.262205 -0.27825195,-3.24e-4 -0.96400772,-0.07973 -1.52390112,-0.176455 -1.2734059,-0.219993 -1.5910022,-0.219993 -2.7884016,0 -1.300772,0.238985 -1.9826751,0.235002 -2.298501,-0.01343 z m 1.4377908,-4.611779 c 0.019363,-1.0320767 1.151e-4,-1.3056811 -0.091855,-1.3056811 -0.063994,0 -0.5562176,0.3917861 -1.0938311,0.8706361 l -0.977479,0.870635 -0.6789492,0.109527 c -0.373422,0.06024 -0.6789491,0.146465 -0.6789491,0.191612 0,0.04515 0.00996,0.08456 0.02213,0.08761 0.4839639,0.120678 2.9447302,0.506329 3.1646146,0.495958 l 0.3098224,-0.01461 z m 6.4817739,1.084378 c 0.8520116,-0.144936 1.5789879,-0.263978 1.6155026,-0.264541 0.036509,-5.31e-4 0.066385,-0.03723 0.066385,-0.0815 0,-0.04426 -0.2845861,-0.13134 -0.632414,-0.1935 C 1.5750574,11.441511 1.5517461,11.426508 0.32202497,10.314165 -0.0965145,9.9355761 -0.46498236,9.6258212 -0.49679186,9.6258212 c -0.0318095,0 -0.0578403,0.6174318 -0.0578403,1.3720718 0,1.039187 0.0268426,1.371823 0.11065068,1.371049 0.0608632,-5.31e-4 0.80775187,-0.119604 1.65976358,-0.26454 z M -3.4315455,5.9169933 C -5.0171964,5.5112953 -5.6107122,3.6168145 -4.5114376,2.4700171 -4.0682084,2.0076265 -3.6560717,1.835999 -2.9889421,1.835999 c 0.6962466,0 1.1074991,0.1820185 1.57139,0.6954898 0.88564162,0.9802996 0.56580558,2.5832833 -0.6379624,3.1973999 -0.3825943,0.1951853 -1.0120474,0.281232 -1.376031,0.1881046 z"
         id="path5144"
         inkscape:connector-curvature="0" />
    </g>
  </g>
</svg>
